<svg id="Layer_1" data-name="Layer 1" xmlns="http://www.w3.org/2000/svg" viewBox="0 0 97.67 97.67"><defs><style>.cls-1{fill:#ffd100;}</style></defs><title>union-brand</title><path class="cls-1" d="M42.65,59.49a0.72,0.72,0,0,0-.74-0.71H41v1.42h0.89A0.71,0.71,0,0,0,42.65,59.49Z" transform="translate(-1.17 -1.17)"/><path class="cls-1" d="M46.35,69.47H45.46v4.2h0.89A2.1,2.1,0,0,0,46.35,69.47Z" transform="translate(-1.17 -1.17)"/><path class="cls-1" d="M48.16,58.78h-0.9v1.42h0.9a0.71,0.71,0,0,0,.74-0.7A0.72,0.72,0,0,0,48.16,58.78Z" transform="translate(-1.17 -1.17)"/><path class="cls-1" d="M42.4,61.55H41V63H42.4a0.71,0.71,0,0,0,.74-0.7A0.72,0.72,0,0,0,42.4,61.55Z" transform="translate(-1.17 -1.17)"/><path class="cls-1" d="M50,1.17A48.83,48.83,0,1,0,98.83,50,48.83,48.83,0,0,0,50,1.17ZM70,60.1v1.55H67.82v1.21h2.81v1.59H66.21V57.31h4.42V58.9H67.82V60.1H70ZM61.92,35.49a8.69,8.69,0,1,1-8.69,8.69A8.7,8.7,0,0,1,61.92,35.49Zm2.95,21.82v7.21l-4.5-3.81v3.73H58.75V57.23L63.25,61V57.31h1.61Zm-13.23,0h1.61v4.26a1.32,1.32,0,1,0,2.63,0V57.31h1.61v4.24a2.92,2.92,0,1,1-5.85,0V57.31ZM47,35.68h3.83v17H47v-17ZM44.71,62.32a2.13,2.13,0,0,1-2.16,2.12H39.41V57.31h2.68a2.13,2.13,0,0,1,2.12,2.12,1.69,1.69,0,0,1-.5,1.23A1.84,1.84,0,0,1,44.71,62.32ZM29.22,35.49l10.72,9.07V35.68h3.83V52.87L33.05,43.8v8.88H29.22V35.49Zm-17,10.29V35.68h3.83V45.83a3.05,3.05,0,0,0,3.14,3.35,3.05,3.05,0,0,0,3.14-3.35V35.68h3.83v10.1a6.69,6.69,0,0,1-7,7.08A6.69,6.69,0,0,1,12.26,45.78ZM23.69,60.88a3.65,3.65,0,1,1,3.65,3.65A3.65,3.65,0,0,1,23.69,60.88Zm4.71,14.34a2.73,2.73,0,0,1-2.56-1.4l1.22-1a1.74,1.74,0,0,0,1.32.88c0.47,0,.68-0.18.68-0.51a1,1,0,0,0-.83-0.79l-0.4-.18A2.47,2.47,0,0,1,26.16,70a2.09,2.09,0,0,1,2.17-2.06,2.35,2.35,0,0,1,2,.89L29.24,70a1.06,1.06,0,0,0-.91-0.53,0.51,0.51,0,0,0-.55.49c0,0.37.31,0.57,1,.86L29.12,71a2.3,2.3,0,0,1,1.56,2.14A2.09,2.09,0,0,1,28.41,75.21Zm7.53-5.63H34.21v5.55H32.61V69.59H30.9V68h5v1.59ZM36.22,58.9H33.61V60.1h2v1.55h-2v2.79H32V57.31h4.22V58.9Zm6.35,13.34a2.92,2.92,0,1,1-5.85,0V68h1.61v4.26a1.32,1.32,0,1,0,2.63,0V68h1.61v4.24Zm3.78,2.89h-2.5V68h2.5A3.57,3.57,0,1,1,46.35,75.13Zm3.13-10.69-2.21-2.89h0v2.89H45.65V57.31h2.69a2.12,2.12,0,0,1,.74,4.11l2.32,3H49.49Zm5.93,5.14H52.6v1.21h2.21v1.55H52.6v1.21h2.81v1.59H51V68h4.42v1.59Zm7.18,5.63L58.1,71.4v3.73H56.49V67.92L61,71.73V68H62.6v7.21Zm5.9-5.63H66.78v5.55H65.17V69.59H63.47V68h5v1.59Zm2.92,5.63a2.73,2.73,0,0,1-2.56-1.4l1.22-1a1.73,1.73,0,0,0,1.32.88c0.47,0,.68-0.18.68-0.51a1,1,0,0,0-.83-0.79l-0.4-.18A2.47,2.47,0,0,1,69.17,70a2.09,2.09,0,0,1,2.17-2.06,2.35,2.35,0,0,1,2,.89L72.26,70a1.06,1.06,0,0,0-.91-0.53,0.51,0.51,0,0,0-.55.49c0,0.37.31,0.57,1,.86L72.14,71a2.3,2.3,0,0,1,1.56,2.14A2.09,2.09,0,0,1,71.42,75.21Zm4.66-10.77H71.71V57.31h1.61v5.54h2.77v1.6ZM76.85,43.8v8.88H73V35.49l10.72,9.07V35.68h3.83V52.87Z" transform="translate(-1.17 -1.17)"/><path class="cls-1" d="M29.37,60.88a2,2,0,1,0-2,2.1A2.05,2.05,0,0,0,29.37,60.88Z" transform="translate(-1.17 -1.17)"/><path class="cls-1" d="M61.92,49.18a5,5,0,1,0-4.83-5A4.89,4.89,0,0,0,61.92,49.18Zm0-7.16a2.15,2.15,0,1,1-2.15,2.15A2.15,2.15,0,0,1,61.92,42Z" transform="translate(-1.17 -1.17)"/></svg>